<svg id="Group_1113" data-name="Group 1113" xmlns="http://www.w3.org/2000/svg" xmlns:xlink="http://www.w3.org/1999/xlink" width="55.759" height="43.369" viewBox="0 0 55.759 43.369">
  <defs>
    <clipPath id="clip-path">
      <rect id="Rectangle_911" data-name="Rectangle 911" width="55.759" height="43.369" fill="#666"/>
    </clipPath>
  </defs>
  <g id="Group_1112" data-name="Group 1112" clip-path="url(#clip-path)">
    <path id="Path_181" data-name="Path 181" d="M52.219,0H3.541A3.54,3.54,0,0,0,0,3.54V39.828a3.541,3.541,0,0,0,3.541,3.541H52.219a3.539,3.539,0,0,0,3.539-3.541V3.54A3.539,3.539,0,0,0,52.219,0m-.885,38.943h-3.6c-.469-1.292-3.673-2.159-8.417-3.885-5.115-1.868-6.753-3.444-6.753-6.815,0-2.018,1.558-1.363,2.249-5.063.282-1.54,1.662-.027,1.929-3.54,0-1.4-.753-1.744-.753-1.744s.381-2.071.532-3.664c.185-1.982-1.142-7.116-8.259-7.116s-8.443,5.134-8.247,7.116c.149,1.593.53,3.664.53,3.664s-.753.345-.753,1.744c.257,3.513,1.638,2,1.93,3.54.682,3.7,2.248,3.045,2.248,5.063,0,3.371-1.637,4.947-6.762,6.815-4.734,1.726-7.939,2.593-8.407,3.885H4.424V4.426h46.91Z" transform="translate(0 0)" fill="#666"/>
  </g>
</svg>
